<mxfile host="app.diagrams.net" modified="2023-11-23T18:19:28.955Z" agent="Mozilla/5.0 (X11; Linux x86_64) AppleWebKit/537.36 (KHTML, like Gecko) Chrome/117.0.0.0 Safari/537.36" version="22.1.3" etag="6fWQVGUmRIMf4Nn0HfBm" type="github">
  <diagram name="PÃ¡gina-1" id="e3E0DYldyTuwc24IfAfR">
    <mxGraphModel>
      <root>
        <mxCell id="0" />
        <mxCell id="1" parent="0" />
      </root>
    </mxGraphModel>
  </diagram>
</mxfile>
